<svg viewBox="0 0 60 47" fill="none" xmlns="http://www.w3.org/2000/svg">
<g clip-path="url(#clip0_460_7)">
<path d="M49.7473 5.354H43.375V15.2002H49.7473V5.354Z" fill="#201919" stroke="#201919"/>
<path d="M19.3706 46.7296V22.1775H54.396V46.7296H19.3706Z" fill="#D9C452" stroke="#201919" stroke-width="2"/>
<path d="M36.931 1.74097L58.0028 22.1312H16.0029L36.931 1.74097Z" fill="#201919" stroke="#201919" stroke-width="2"/>
<path d="M32.4187 35.3042H25.4873V46.6832H32.4187V35.3042Z" fill="#938C6C" stroke="#201919" stroke-width="0.96277"/>
<path d="M49.7471 35.3042H37.0024V42.3358H49.7471V35.3042Z" fill="#938C6C" stroke="#201919"/>
<path d="M43.375 35.3042V42.3358" stroke="#201919"/>
<path d="M37.0024 38.8201H49.7471" stroke="#201919" stroke-miterlimit="1"/>
<path d="M30.5255 42.0112C30.8149 42.0112 31.0495 41.7835 31.0495 41.5026C31.0495 41.2216 30.8149 40.9939 30.5255 40.9939C30.2361 40.9939 30.0015 41.2216 30.0015 41.5026C30.0015 41.7835 30.2361 42.0112 30.5255 42.0112Z" fill="#201919"/>
<path d="M7.94437 37.4713C7.29319 37.916 6.68799 38.6304 5.8233 38.7646C1.07126 39.5022 4.45976 35.2259 4.45976 34.4967C4.45976 33.6291 2.11013 34.1382 1.73268 33.3327C-0.0165595 29.5996 2.72318 30.2714 4.91428 28.9354C6.45411 27.9965 5.68885 26.1462 8.55039 25.7021C11.1355 25.3009 10.2711 26.849 11.732 27.3834C12.4351 27.6406 14.0704 26.7824 15.0651 27.2541C17.6357 28.4732 14.9211 29.7369 15.2166 30.746C15.3907 31.3405 16.6769 31.3232 16.8831 31.91C17.5665 33.8546 16.0713 33.6287 15.5196 34.8847C15.0856 35.8727 16.5822 41.8704 11.429 37.4713" fill="#7B9D85"/>
<path d="M7.94437 37.4713C7.29319 37.916 6.68799 38.6304 5.8233 38.7646C1.07126 39.5022 4.45976 35.2259 4.45976 34.4967C4.45976 33.6291 2.11013 34.1382 1.73268 33.3327C-0.0165595 29.5996 2.72318 30.2714 4.91428 28.9354C6.45411 27.9965 5.68885 26.1462 8.55039 25.7021C11.1355 25.3009 10.2711 26.849 11.732 27.3834C12.4351 27.6406 14.0704 26.7824 15.0651 27.2541C17.6357 28.4732 14.9211 29.7369 15.2166 30.746C15.3907 31.3405 16.6769 31.3232 16.8831 31.91C17.5665 33.8546 16.0713 33.6287 15.5196 34.8847C15.0856 35.8727 16.5822 41.8704 11.429 37.4713" stroke="#201919"/>
<path d="M11.7646 37.2339H7.64697V44.5586H11.7646V37.2339Z" fill="#201919"/>
</g>
<defs>
<clipPath id="clip0_460_7">
<rect width="60" height="47" fill="white"/>
</clipPath>
</defs>
</svg>
